<svg width="18" height="19" viewBox="0 0 18 19" fill="none" xmlns="http://www.w3.org/2000/svg">
<g clip-path="url(#clip0_9335_12746)">
<path d="M9 18.9327C13.9706 18.9327 18 14.9032 18 9.93268C18 4.96211 13.9706 0.932678 9 0.932678C4.02944 0.932678 0 4.96211 0 9.93268C0 14.9032 4.02944 18.9327 9 18.9327Z" fill="#D80027"/>
<path d="M4.92539 6.41L5.70234 8.80063H8.21601L6.18398 10.2807L6.96094 12.6713L4.92539 11.1948L2.88984 12.6713L3.67031 10.2807L1.63477 8.80063H4.14844L4.92539 6.41Z" fill="#FFDA44"/>
<path d="M10.6707 14.8721L10.0766 14.1409L9.19766 14.4819L9.70742 13.6909L9.11328 12.9561L10.0238 13.1987L10.5371 12.4077L10.5863 13.3498L11.5004 13.5924L10.618 13.9299L10.6707 14.8721Z" fill="#FFDA44"/>
<path d="M11.852 12.7276L12.1332 11.8276L11.3633 11.2827L12.3055 11.2686L12.5832 10.3686L12.8891 11.2616L13.8313 11.251L13.0754 11.8135L13.3777 12.7065L12.6078 12.1616L11.852 12.7276Z" fill="#FFDA44"/>
<path d="M13.443 7.53852L13.0281 8.38579L13.7031 9.04321L12.7715 8.90962L12.3566 9.75337L12.1949 8.82524L11.2598 8.69165L12.0965 8.2522L11.9348 7.32056L12.6098 7.97798L13.443 7.53852Z" fill="#FFDA44"/>
<path d="M10.6941 4.97211L10.6238 5.91078L11.4992 6.26586L10.5816 6.49086L10.5148 7.43304L10.0191 6.63148L9.10156 6.85648L9.70977 6.13578L9.21055 5.33773L10.0859 5.69281L10.6941 4.97211Z" fill="#FFDA44"/>
</g>
<defs>
<clipPath id="clip0_9335_12746">
<rect width="18" height="18" fill="white" transform="translate(0 0.932617)"/>
</clipPath>
</defs>
</svg>
