<svg width="24" height="24" viewBox="0 0 24 24" fill="none" xmlns="http://www.w3.org/2000/svg">
<circle cx="12" cy="12" r="12" fill="#00309D"/>
<mask id="mask0_2_302" style="mask-type:alpha" maskUnits="userSpaceOnUse" x="0" y="0" width="24" height="24">
<circle cx="12" cy="12" r="12" fill="white"/>
</mask>
<g mask="url(#mask0_2_302)">
<path fill-rule="evenodd" clip-rule="evenodd" d="M12.1681 3.47986L11.8537 2.50598L11.5395 3.47986L10.5167 3.4779L11.3456 4.07774L11.0272 5.05031L11.8537 4.44737L12.6806 5.05031L12.3624 4.07774L13.1913 3.4779L12.1681 3.47986ZM16.2871 4.5819L15.9726 3.60835L15.6583 4.5819L14.635 4.5801L15.4642 5.1801L15.146 6.15235L15.9726 5.54941L16.7992 6.15235L16.481 5.1801L17.3102 4.5801L16.2871 4.5819ZM18.9868 6.62876L19.3009 7.60247L20.3239 7.60051L19.495 8.20051L19.8132 9.17308L18.9868 8.56982L18.1602 9.17308L18.4781 8.20051L17.6493 7.60051L18.6725 7.60247L18.9868 6.62876ZM20.4039 11.7179L20.0896 10.7445L19.7752 11.7179L18.752 11.7159L19.5809 12.3159L19.2629 13.2882L20.0896 12.6851L20.9161 13.2882L20.598 12.3159L21.4271 11.7159L20.4039 11.7179ZM18.9941 14.8652L19.3084 15.8392L20.3316 15.8371L19.5025 16.4371L19.8206 17.4099L18.9941 16.8067L18.1675 17.4099L18.4854 16.4371L17.6565 15.8371L18.6798 15.8392L18.9941 14.8652ZM16.2835 18.8493L15.9694 17.8753L15.6551 18.8493L14.6318 18.8473L15.461 19.4468L15.1428 20.4194L15.9694 19.8168L16.7959 20.4194L16.4777 19.4468L17.3066 18.8473L16.2835 18.8493ZM11.8505 18.9848L12.1649 19.9585L13.1881 19.9567L12.3592 20.5564L12.6772 21.5291L11.8505 20.9262L11.024 21.5291L11.3424 20.5564L10.5135 19.9567L11.5365 19.9585L11.8505 18.9848ZM8.05284 18.8514L7.73855 17.8773L7.4241 18.8514L6.40092 18.8492L7.22982 19.4492L6.91178 20.4215L7.73855 19.8189L8.56516 20.4215L8.24696 19.4492L9.07602 18.8492L8.05284 18.8514ZM4.7108 14.8569L5.02525 15.8306L6.04843 15.8288L5.21969 16.4285L5.53774 17.4011L4.7108 16.798L3.88435 17.4011L4.20239 16.4285L3.37349 15.8288L4.39651 15.8306L4.7108 14.8569ZM3.92926 11.7179L3.61498 10.744L3.30069 11.7179L2.27734 11.7159L3.10624 12.3159L2.78804 13.2882L3.61498 12.6851L4.44143 13.2882L4.12338 12.3159L4.95212 11.7159L3.92926 11.7179ZM4.70601 6.63705L5.02046 7.6106L6.04332 7.60848L5.21442 8.20848L5.53263 9.18089L4.70601 8.57811L3.87956 9.18089L4.19728 8.20848L3.36871 7.60848L4.39189 7.6106L4.70601 6.63705ZM8.04089 4.59512L7.72627 3.62174L7.41199 4.59512L6.38897 4.59317L7.21787 5.193L6.89966 6.16574L7.72627 5.56296L8.55321 6.16574L8.23501 5.193L9.06391 4.59317L8.04089 4.59512Z" fill="#FFCD00"/>
</g>
</svg>
