<svg width="24" height="24" viewBox="0 0 24 24" fill="none" xmlns="http://www.w3.org/2000/svg">
<circle cx="12" cy="12" r="12" fill="white"/>
<mask id="mask0_2_258" style="mask-type:alpha" maskUnits="userSpaceOnUse" x="0" y="0" width="24" height="24">
<circle cx="12" cy="12" r="12" fill="white"/>
</mask>
<g mask="url(#mask0_2_258)">
<rect x="-1" width="14" height="12.9231" fill="#003D8B"/>
<path fill-rule="evenodd" clip-rule="evenodd" d="M11.4784 0.553152L11.2947 0L11.1108 0.553152L10.5123 0.551792L10.9971 0.892389L10.8113 1.44384L11.2947 1.10171L11.7781 1.44384L11.5919 0.892389L12.0769 0.551792L11.4784 0.553152ZM8.24744 0.55322L8.84579 0.55186L8.36101 0.892457L8.54696 1.44391L8.06358 1.10178L7.58003 1.44391L7.76616 0.892457L7.3145 0.575156C7.3315 0.567334 7.34833 0.559682 7.36568 0.55203L7.87973 0.55322L7.96403 0.299515C8.02275 0.276389 8.08146 0.253603 8.14053 0.231497L8.24744 0.55322ZM6.45188 1.3396L6.63574 1.89208L7.23409 1.89072L6.74931 2.23114L6.93544 2.78293L6.45188 2.44081L5.9685 2.78293L6.15446 2.23114L5.66968 1.89072L6.26803 1.89208L6.45188 1.3396ZM3.22088 3.97826L3.40473 4.5309L4.00308 4.52937L3.5183 4.87014L3.70426 5.4221L3.22088 5.0798L2.73732 5.4221L2.92345 4.87014L2.43867 4.52937L3.03702 4.5309L3.22088 3.97826ZM0.729065 9.80771L0.244107 10.148L0.430238 10.6999L0.0769043 10.45C0.100215 10.2349 0.129133 10.0209 0.16366 9.80907L0.729065 9.80771ZM2.38376 5.83005L1.78523 5.8309L1.70356 5.5857C1.50218 5.92391 1.31692 6.27301 1.14884 6.63079L1.118 6.72227L1.60138 6.3798L2.08493 6.72227L1.8988 6.17031L2.38376 5.83005ZM3.22088 6.61742L3.40473 7.17006L4.00308 7.16853L3.5183 7.5093L3.70426 8.06075L3.22088 7.71913L2.73732 8.06075L2.92345 7.5093L2.43867 7.16853L3.03702 7.17006L3.22088 6.61742ZM1.78514 8.47013L1.60129 7.91749L1.41761 8.47013L0.819081 8.46894L1.30404 8.80937L1.11791 9.36082L1.60129 9.01903L2.08484 9.36082L1.89889 8.80937L2.38367 8.46894L1.78514 8.47013ZM3.22088 9.25643L3.40473 9.80907L4.00308 9.80771L3.5183 10.148L3.70426 10.6999L3.22088 10.3578L2.73732 10.6999L2.92345 10.148L2.43867 9.80771L3.03702 9.80907L3.22088 9.25643ZM1.78514 11.1088L1.60129 10.5565L1.41761 11.1088L0.819081 11.108L1.30404 11.448L1.11791 12L1.60129 11.6579L2.08484 12L1.89889 11.448L2.38367 11.108L1.78514 11.1088ZM5.01625 3.19181L4.8324 2.63967L4.64872 3.19181L4.05019 3.19095L4.53498 3.53121L4.34902 4.083L4.8324 3.74088L5.31596 4.083L5.13 3.53121L5.61496 3.19095L5.01625 3.19181ZM6.45188 3.97826L6.63574 4.5309L7.23409 4.52937L6.74931 4.87014L6.93544 5.4221L6.45188 5.0798L5.9685 5.4221L6.15446 4.87014L5.66968 4.52937L6.26803 4.5309L6.45188 3.97826ZM5.01625 5.83097L4.8324 5.27833L4.64872 5.83097L4.05019 5.83012L4.53498 6.17021L4.34902 6.72217L4.8324 6.37987L5.31596 6.72217L5.13 6.17021L5.61496 5.83012L5.01625 5.83097ZM6.45188 6.61742L6.63574 7.17006L7.23409 7.16853L6.74931 7.5093L6.93544 8.06075L6.45188 7.71913L5.9685 8.06075L6.15446 7.5093L5.66968 7.16853L6.26803 7.17006L6.45188 6.61742ZM5.01625 8.47013L4.8324 7.91749L4.64872 8.47013L4.05019 8.46894L4.53498 8.80937L4.34902 9.36082L4.8324 9.01903L5.31596 9.36082L5.13 8.80937L5.61496 8.46894L5.01625 8.47013ZM6.45188 9.25643L6.63574 9.80907L7.23409 9.80771L6.74931 10.148L6.93544 10.6999L6.45188 10.3578L5.9685 10.6999L6.15446 10.148L5.66968 9.80771L6.26803 9.80907L6.45188 9.25643ZM5.01625 11.1088L4.8324 10.5565L4.64872 11.1088L4.05019 11.108L4.53498 11.448L4.34902 12L4.8324 11.6579L5.31596 12L5.13 11.448L5.61496 11.108L5.01625 11.1088ZM9.86685 1.89208L9.683 1.3396L9.49914 1.89208L8.90079 1.89072L9.38557 2.23114L9.19962 2.78293L9.683 2.44081L10.1664 2.78293L9.9806 2.23114L10.4652 1.89072L9.86685 1.89208ZM8.06358 2.63967L8.24744 3.19181L8.84579 3.19095L8.36101 3.53121L8.54696 4.083L8.06358 3.74088L7.58003 4.083L7.76616 3.53121L7.2812 3.19095L7.87973 3.19181L8.06358 2.63967ZM9.86685 4.5309L9.683 3.97826L9.49914 4.5309L8.90079 4.52937L9.38557 4.87014L9.19962 5.4221L9.683 5.0798L10.1664 5.4221L9.9806 4.87014L10.4652 4.52937L9.86685 4.5309ZM8.06358 5.27833L8.24744 5.83097L8.84579 5.83012L8.36101 6.17021L8.54696 6.72217L8.06358 6.37987L7.58003 6.72217L7.76616 6.17021L7.2812 5.83012L7.87973 5.83097L8.06358 5.27833ZM9.86685 7.17006L9.683 6.61742L9.49914 7.17006L8.90079 7.16853L9.38557 7.5093L9.19962 8.06075L9.683 7.71913L10.1664 8.06075L9.9806 7.5093L10.4652 7.16853L9.86685 7.17006ZM8.06358 7.91749L8.24744 8.47013L8.84579 8.46894L8.36101 8.80937L8.54696 9.36082L8.06358 9.01903L7.58003 9.36082L7.76616 8.80937L7.2812 8.46894L7.87973 8.47013L8.06358 7.91749ZM9.86685 9.80907L9.683 9.25643L9.49914 9.80907L8.90079 9.80771L9.38557 10.148L9.19962 10.6999L9.683 10.3578L10.1664 10.6999L9.9806 10.148L10.4652 9.80771L9.86685 9.80907ZM8.06358 10.5565L8.24744 11.1088L8.84579 11.108L8.36101 11.448L8.54696 12L8.06358 11.6579L7.58003 12L7.76616 11.448L7.2812 11.108L7.87973 11.1088L8.06358 10.5565ZM11.2947 2.63967L11.4784 3.19181L12.0769 3.19095L11.5919 3.53121L11.7781 4.083L11.2947 3.74088L10.8113 4.083L10.9971 3.53121L10.5123 3.19095L11.1108 3.19181L11.2947 2.63967ZM11.4784 5.83097L11.2947 5.27833L11.1108 5.83097L10.5123 5.83012L10.9971 6.17021L10.8113 6.72217L11.2947 6.37987L11.7781 6.72217L11.5919 6.17021L12.0769 5.83012L11.4784 5.83097ZM11.2947 7.91749L11.4784 8.47013L12.0769 8.46894L11.5919 8.80937L11.7781 9.36082L11.2947 9.01903L10.8113 9.36082L10.9971 8.80937L10.5123 8.46894L11.1108 8.47013L11.2947 7.91749ZM11.4784 11.1088L11.2947 10.5565L11.1108 11.1088L10.5123 11.108L10.9971 11.448L10.8113 12L11.2947 11.6579L11.7781 12L11.5919 11.448L12.0769 11.108L11.4784 11.1088Z" fill="white"/>
<path fill-rule="evenodd" clip-rule="evenodd" d="M24 0H13V1.84615H24V0ZM13 3.69231H24V5.53846H13V3.69231ZM0 14.7692H24V16.6154H0V14.7692ZM0 18.4615H24V20.3077H0V18.4615ZM24 22.1538H0V24H24V22.1538ZM13 7.38462H24V9.23077H13V7.38462ZM24 11.0769H13V12.9231H24V11.0769Z" fill="#F91B26"/>
</g>
</svg>
